<?xml version="1.0" standalone="no"?><!DOCTYPE svg PUBLIC "-//W3C//DTD SVG 1.1//EN" "http://www.w3.org/Graphics/SVG/1.1/DTD/svg11.dtd"><svg t="1712489243060" class="icon" viewBox="0 0 1024 1024" version="1.1" xmlns="http://www.w3.org/2000/svg" p-id="5281" xmlns:xlink="http://www.w3.org/1999/xlink" width="200" height="200"><path d="M787.2 149.333333v819.2c0 29.866667-23.466667 53.333333-53.333333 53.333334H53.333333c-29.866667 2.133333-53.333333-21.333333-53.333333-51.2V149.333333c0-29.866667 23.466667-53.333333 53.333333-53.333333h680.533334c29.866667 0 53.333333 25.6 53.333333 53.333333z" fill="#66C6B9" p-id="5282"></path><path d="M91.733333 181.333333h603.733334v750.933334H91.733333z" fill="#FFFFFF" p-id="5283"></path><path d="M563.2 219.733333V102.4c0-17.066667-12.8-29.866667-29.866667-29.866667h-68.266666c0-38.4-32-72.533333-72.533334-72.533333-38.4 0-70.4 32-70.4 72.533333h-68.266666c-17.066667 0-29.866667 12.8-29.866667 29.866667v117.333333h339.2z m-168.533333-172.8c12.8 0 25.6 10.666667 25.6 25.6 0 12.8-10.666667 25.6-25.6 25.6-12.8 0-25.6-10.666667-25.6-25.6s10.666667-25.6 25.6-25.6z" fill="#415A6B" p-id="5284"></path><path d="M283.733333 439.466667H166.4v-117.333334h117.333333v117.333334zM179.2 426.666667h93.866667v-93.866667H179.2V426.666667z" fill="#CED6E0" p-id="5285"></path><path d="M200.533333 422.4c-4.266667 0-8.533333-2.133333-12.8-6.4l-46.933333-46.933333c-6.4-6.4-6.4-19.2 0-25.6 6.4-6.4 19.2-6.4 25.6 0l32 32 68.266667-68.266667c6.4-6.4 19.2-6.4 25.6 0 6.4 6.4 6.4 19.2 0 25.6l-78.933334 85.333333c-2.133333 2.133333-8.533333 4.266667-12.8 4.266667z" fill="#F3705A" p-id="5286"></path><path d="M283.733333 654.933333H166.4v-117.333333h117.333333v117.333333z m-104.533333-10.666666h93.866667v-93.866667H179.2v93.866667z" fill="#CED6E0" p-id="5287"></path><path d="M200.533333 637.866667c-4.266667 0-8.533333-2.133333-12.8-6.4l-46.933333-46.933334c-6.4-6.4-6.4-19.2 0-25.6 8.533333-4.266667 19.2-4.266667 27.733333 2.133334l32 32 68.266667-68.266667c6.4-6.4 19.2-6.4 25.6 0 6.4 6.4 6.4 19.2 0 25.6L213.333333 633.6c-2.133333 4.266667-8.533333 4.266667-12.8 4.266667z" fill="#F3705A" p-id="5288"></path><path d="M283.733333 872.533333H166.4v-117.333333h117.333333v117.333333z m-104.533333-12.8h93.866667v-93.866666H179.2v93.866666z" fill="#CED6E0" p-id="5289"></path><path d="M200.533333 855.466667c-4.266667 0-8.533333-2.133333-12.8-6.4l-46.933333-46.933334c-6.4-6.4-6.4-19.2 0-25.6 6.4-6.4 19.2-6.4 25.6 0L200.533333 810.666667l68.266667-68.266667c6.4-6.4 19.2-6.4 25.6 0 6.4 6.4 6.4 19.2 0 25.6L213.333333 849.066667c-2.133333 4.266667-8.533333 6.4-12.8 6.4z" fill="#F3705A" p-id="5290"></path><path d="M1007.488 82.112l-69.973333 94.144-66.773334-49.621333 69.973334-94.165334z" fill="#415A6B" p-id="5291"></path><path d="M870.4 121.6c44.8-14.933333 106.666667 10.666667 106.666667 10.666667L625.066667 605.866667c-55.466667 74.666667-123.733333 140.8-202.666667 194.133333 27.733333-89.6 72.533333-172.8 128-249.6l320-428.8z" fill="#F3705A" p-id="5292"></path><path d="M558.72 538.069333l49.664-66.773333 73.6 54.72-49.621333 66.773333z" fill="#415A6B" p-id="5293"></path><path d="M955.733333 42.666667l40.533334 29.866666 23.466666-32c8.533333-10.666667 6.4-25.6-4.266666-34.133333-12.8-10.666667-27.733333-6.4-36.266667 4.266667L955.733333 42.666667z" fill="#F3705A" p-id="5294"></path><path d="M945.066667 70.4l-12.8 17.066667L900.266667 64l-98.133334 123.733333c8.533333 10.666667 2.133333 19.2-6.4 32s-21.333333 21.333333-34.133333 10.666667c-4.266667-4.266667-6.4-10.666667-2.133333-14.933333l128-172.8c4.266667-4.266667 10.666667-6.4 14.933333-2.133334l42.666667 29.866667z" fill="#415A6B" p-id="5295"></path></svg>